<svg xmlns="http://www.w3.org/2000/svg" viewBox="0 0 107 107" enable-background="new 0 0 107 107">
	<g fill="none" stroke="#808184" stroke-width="2.519" stroke-linecap="round" stroke-linejoin="round" stroke-miterlimit="10">
		<circle cx="53.5" cy="53.5" r="52.2"/>
		<path d="M65.7 73.7M65.4 74c1.7-1.6 2.6-3.9 3-4.6M82.2 78.3l-16-4.8s-.2-.1-.5.2M65.7 73.7c-1 .9-2.2 1.7-3.4 2.2-3.1 1.5-8.4 1.7-12.6 1.9-3.6.2-7.9.1-9.9 0-4-.2-7.3-2.3-7.3-2.3l.7-.4c-1 .1-1.8 0-2.2-.1-1-.4-2.1-1-2.1-2.8 0-.9-.1-1.9.1-2.7l.4-.4c-.2 0-.4.1-.6.1-3.9.4-5.3-2-5.2-4.3.1-2 .7-3.6 2.2-4.2h-.4c-3.9.1-5.1-2.9-4.9-5.2.3-2.3 1.2-3.9 3.5-4l-.8-.5c-2.6-.9-3.1-3.8-2.7-5.8.3-1.2.7-2.2 1.4-2.9l.1-.1c.8-1.1 5.8-3.3 7.7-3.9 1.8-.6 7.4-2.6 7.4-2.6l1.3-1.2c.8-1.2 1.2-2.1 1.6-2.8.8-1.6 5.6-3.9 8.9-2.8C52.4 30 62.5 36.6 65 39.5c2.5 3 3.1 5.2 4.8 6.1 1.2.6 9.6 1.7 17.1 2.6M45.5 66.3c2.2-.5 2.7 1 3 2.4.3 1.4-.7 2.8-2.4 3.5-1.3.5-3.5 1.4-7.3 2.1-2.2.5-5.8 1.2-7.9.7M24 51.5c3.1.2 23.5-.3 23.5-.3l3-.2M43.1 43.5c2.9.3 4.2.8 4.2.8.6.1 1.3.3 2 .7M25.8 60.8c2.9-.3 7.2-.8 11.2-1.1 7-.5 11.3-1.4 11.3-1.4 2.2-.2 3.4-1.7 3.4-3.4.1-1.8-1.3-3.2-3.1-3.3 0 0-3.2-.3-13.2-.5-4.5-.1-8.7.3-11.5.4M29 69.3c5.1-1.1 19.6-3.6 19.6-3.6 2.2-.3 3.2-1.9 3.2-3.7-.1-1.8-1.6-3.1-3.3-3 0 0-.5-.1-10.4.6-6.4.4-8.9.9-11.2 1.1M45.5 40.4s-1.3 2.5-4.1 4.4c-3 1.9-5.6 1.3-7.2.6-2.2-1-2.9-3.1-2.3-4.2.2-.4 1.7-1.1 3.7-3.3.5-.5 1.2-1.9 2.3-2.9M64.3 63.7s-10.1 1.1-11.8-6.3c-1.2-5-2.2-9.6-2.7-12"/>
	</g>
</svg>