<svg xmlns="http://www.w3.org/2000/svg" viewBox="0 0 107 107" enable-background="new 0 0 107 107">
	<circle fill="none" stroke="#808184" stroke-width="2.519" stroke-linecap="round" stroke-linejoin="round" stroke-miterlimit="10" cx="53.5" cy="53.5" r="52.2"/>
	<g fill="none" stroke="#808184" stroke-width="2.519" stroke-linecap="round" stroke-linejoin="round" stroke-miterlimit="10">
		<path d="M39.6 48.3s-3.3-.3-4.5-2.2c-2.5-4 2.8-2.9 8-6.9 5.9-4.5 11.6-8.5 16.3-8.5 3 0 7.3.3 10.2 3.7 2.3 2.7 4 5 2.8 15.8-1.1 10.4-.2 7-3 12.2S56 73.7 52.3 75.6c-3.7 1.9-9.6 6.6-12 8-2.2 1.3-4.7.8-6.2 0-1.5-.9-1-2.3-1-3.1-2.1 1.8-7.1 2.3-8.5-.2-1.4-2.6-.1-4.1 2.2-5.4 0 0-4.2 1-5.9-1.7-1.7-2.7 1.8-5.6 3.4-5.9 0 0-3-.4-3.5-2.2-.7-2.6 1.5-4.2 5.3-7.2s10.6-8.6 13.5-9.6zM24.2 67.3s3.8.7 7.7-2.9c3.9-3.6 9.5-7.2 12.1-9.3M26.5 75s3.9-.9 6.9-3.8c3.1-3 10.8-7.3 11.6-7.7M33.1 80.5c1.3-1 2.2-1.1 4.4-3.2 1.4-1.3 7.8-6.1 9.9-7.3M39.6 48.3s3.9.1 6.8-1c3-1.2 4.7-2.4 8.9-1.6 4.8.9 8.4 2.1 11.2-2.7M44.1 52.5s-.3 12.6 5.3 19.9M68 32.7c1.7-.8 9.8-.8 17.4-.9M72.9 56.7c2.7-1.4 8.2-1.3 13.7-1"/>
	</g>
</svg>