<svg xmlns="http://www.w3.org/2000/svg" viewBox="0 0 107 107" enable-background="new 0 0 107 107">
	<circle fill="#808184" stroke="#808184" stroke-width="2.519" stroke-linecap="round" stroke-linejoin="round" stroke-miterlimit="10" cx="53.5" cy="53.5" r="52.2"/>
	<path fill="none" stroke="#ffffff" stroke-width="2.519" stroke-linecap="round" stroke-linejoin="round" stroke-miterlimit="10" d="M77.3 66.3l8.3 2.8M58.3 48.6c-.8 2.5-2.7 7.3-4.2 9.6M58.3 48.7c-.1-.6-6.3-4.9-6.7-5.5s-1.7-1.8-3.4-2.4-6-2.6-7.9-2.5c-1.9.1-7.5-.6-8.9-.4-.8.1-4.6 1.1-7.7 1.1-2.7 0-3.7-.5-4.4-.8-1.4-.9-2.2-2.3-1.2-3.5s3.7-1.3 5.4-1.7c2.2-.5 6.7-1.7 8.2-2 6-1.4 6.8-1.2 11.2-.6 5.8.8 10.4 1.6 14.5 2 4.1.4 5.6 3.6 11.1 6.3 8.1 4 14.1 7 21.9 8M37.7 38.2c-2.6-.1-3.1 4.5-3.3 5.9-.2 1.3-1 3-2.6 6.9-1.8 4.3-3 6.4-3.1 7.8-.1 1.8 1.3 2.8 2.2 2.8.9.1 2.5-.5 3.6-1.8 1.3-1.6 1.9-2.6 3.4-6.4 1.4-3.8 4.5-7.8 4.5-7.8 1.3 0 6-1.3 8.8-2.1M58.7 56.7c-1.7 1.5-9.8 3.2-14.9 3.2-3 0-7.4.7-10.4 2-2.1.9-3.3 2.5-3.7 3.3-.7 1.5 0 2.9 1.3 3.4s1.9-.6 4.8-.8c3-.1 5.1.3 7.2.1 3-.3 10.7-1.8 14.6-.9 3.9.9 8.3 2.5 12.4 1.7 2.7-.5 9.3-2.6 9.6-5.9M38.5 67.6M22.4 45.6s.2 3.1 5 2.9c1.2 0 3.5-.4 5.7-.8M16.8 60.3l5.7 1M34.4 43.4c-1.6.3-8.3 1.3-12.4 1.2-4.7-.1-5.4-2.2-5.5-3.1-.1-1 1-1.8 1.5-2 .4-.1 3.8-.1 5.7-.5M17 70l6-2.4M24.2 77.2l3.4-5.1"/>
</svg>