<svg xmlns="http://www.w3.org/2000/svg" viewBox="0 0 107 107" enable-background="new 0 0 107 107">
	<circle fill="#808184" stroke="#808184" stroke-width="2.519" stroke-linecap="round" stroke-linejoin="round" stroke-miterlimit="10" cx="53.5" cy="53.5" r="52.2"/>
	<g fill="none" stroke="#ffffff" stroke-width="2.519" stroke-linecap="round" stroke-linejoin="round" stroke-miterlimit="10">
		<path d="M58.1 18.8c1.6 3.3 3.7 5.2 5.8 7.8 1.7 2.2 3.4 4.5 5.4 6.5 4.6 4.9 10.5 8.9 13.4 15 1 2.2 2.1 4.9 4.5 5.2M57.9 18.6c-1.8-.2-3.5 1.4-3.9 3.2-.4 1.8.1 3.7.8 5.4 1.4 3.2 3.5 6.1 4.8 9.4 1.5 3.7 1.8 7.9 1 11.8M45.1 51c-7.3-1.2-14.8-2.7-22-4.5-1.8-.5-4.3-1.1-4.5-3.2-.2-2.1 1.5-2.8 3.4-2.7 3.7.3 7.5.8 11.3 1.5 4.1.8 7.4 1.3 12.2 1.9 5 .7 13.5 2.5 15.3-.5M45.1 51c0 .9.2 3.4.2 4.3M45.1 55.3c-8.9 1.2-17.7-.4-26.8.3-1.3.1-3.9.3-4.5 1.7-1.1 2.6 1.5 3.6 3.7 3.7 8.8.4 17.5.4 26.4.1M43.9 60.9c.2.5.7 1.5.9 2-3 1.4-6.2 2.5-9.1 3.8-3.7 1.6-9.4 4-11.3 4.7-2.7 1.1-5.4 1.7-4.3 4.4.7 1.6 2.6 1.7 4.2 1.2 7.8-2.2 14.5-4.8 21-7.1l.6-.2c.7.7 2.1 2 2.8 2.7C43.5 77 34 83 32 84.3c-2.9 1.9-.4 5.2 2.8 3.7 4.9-2.3 8.6-4 13.4-6.8 2.8-1.7 7.8-3.2 9.5-3.4.9-.1 6.7.8 13.1-.6 6.3-1.4 10.5-4.2 11.9-5.7M93.4 50.8c-4.1-.2-8-.6-9.8-.9M79.8 74c1.4-.1 5.5.4 8.6.9M61.7 53.4s0 7 6.5 9.2"/>
	</g>
</svg>